<?xml version="1.0" standalone="no"?>
<!DOCTYPE svg PUBLIC "-//W3C//DTD SVG 20010904//EN"
 "http://www.w3.org/TR/2001/REC-SVG-20010904/DTD/svg10.dtd">
<svg version="1.0" xmlns="http://www.w3.org/2000/svg"
 width="261.000000pt" height="261.000000pt" viewBox="0 0 261.000000 261.000000"
 preserveAspectRatio="xMidYMid meet">
<metadata>
Created by potrace 1.11, written by Peter Selinger 2001-2013
</metadata>
<g transform="translate(0.000000,261.000000) scale(0.100000,-0.100000)"
fill="#000000" stroke="none">
<path d="M1838 1965 c-2 -1 -52 -5 -111 -8 -60 -2 -114 -10 -120 -16 -6 -6
-17 -11 -25 -11 -8 0 -25 -9 -39 -20 -14 -11 -29 -17 -34 -14 -5 3 -9 -1 -9
-8 0 -13 -47 -58 -62 -58 -5 0 -7 -3 -5 -7 3 -5 -1 -14 -9 -21 -8 -7 -14 -11
-14 -8 0 3 -24 -19 -54 -49 -29 -30 -56 -51 -60 -48 -9 9 -7 -30 3 -45 8 -14
13 -13 160 14 32 6 33 6 21 -16 -9 -17 -9 -21 0 -15 9 6 9 2 1 -14 -7 -11 -8
-21 -4 -21 4 0 1 -5 -7 -10 -8 -5 -10 -10 -4 -10 6 0 12 -11 12 -25 0 -16 -5
-22 -12 -18 -6 4 -4 -2 4 -12 14 -17 13 -18 -5 -12 -17 6 -18 5 -5 -5 19 -16
16 -93 -3 -81 -8 4 -7 1 1 -9 7 -9 9 -18 5 -21 -4 -3 -7 -35 -6 -71 1 -45 -2
-66 -10 -66 -7 0 -6 -4 3 -10 8 -5 10 -10 5 -10 -6 0 -9 -22 -8 -50 2 -34 -1
-49 -8 -44 -7 4 -7 -2 1 -16 7 -14 8 -20 1 -16 -7 4 -9 -6 -5 -30 2 -21 -1
-43 -8 -52 -11 -13 -11 -14 0 -8 9 6 11 2 7 -16 -3 -12 -7 -43 -9 -67 -2 -24
-8 -46 -13 -50 -4 -3 -8 -10 -8 -16 -1 -18 -38 -85 -47 -85 -5 0 -6 -4 -3 -10
3 -6 1 -10 -5 -10 -6 0 -8 -4 -5 -10 3 -5 1 -10 -4 -10 -6 0 -10 -3 -10 -7 3
-20 -2 -34 -10 -28 -5 3 -13 0 -17 -6 -5 -8 -3 -9 6 -4 10 6 12 4 7 -7 -10
-27 33 -35 168 -32 165 4 278 18 397 48 399 101 620 347 627 696 3 184 -49
297 -190 411 -49 40 -177 105 -224 113 -16 3 -41 8 -55 11 -14 3 -56 8 -95 11
-38 3 -78 6 -87 8 -9 2 -18 3 -20 1z m139 -288 c41 -22 74 -57 66 -70 -3 -6
-1 -7 4 -4 9 6 27 -20 23 -32 -1 -2 3 -7 8 -10 17 -11 53 -121 39 -121 -8 0
-7 -3 3 -10 8 -5 11 -12 8 -15 -4 -4 -3 -18 2 -31 8 -19 6 -24 -7 -24 -14 0
-14 -2 3 -15 10 -8 14 -15 8 -15 -6 0 -9 -13 -6 -31 4 -24 2 -30 -8 -24 -10 6
-11 4 -4 -6 12 -20 14 -40 2 -33 -6 4 -8 -2 -3 -16 5 -15 4 -20 -4 -16 -7 5
-8 1 -4 -9 3 -10 0 -21 -8 -26 -12 -7 -12 -9 0 -9 11 0 10 -4 -5 -16 -10 -8
-13 -13 -7 -9 9 4 11 1 7 -9 -3 -9 -10 -16 -15 -16 -5 0 -8 -6 -7 -12 2 -7 -2
-12 -9 -11 -7 2 -10 -4 -7 -12 4 -8 -1 -17 -10 -21 -9 -3 -13 -11 -9 -17 4 -6
0 -8 -11 -4 -9 4 -15 3 -11 -3 7 -11 -35 -51 -47 -44 -4 3 -8 0 -8 -5 0 -6
-17 -18 -37 -27 -43 -18 -159 -25 -157 -9 1 6 5 51 8 100 4 50 9 106 11 125 2
19 7 71 10 115 8 106 14 170 25 289 6 54 10 102 10 107 0 30 87 27 147 -4z"/>
<path d="M438 1921 c-95 -24 -149 -33 -152 -27 -2 6 -3 -2 -1 -19 1 -16 -2
-36 -9 -44 -9 -12 -8 -13 4 -6 12 7 13 6 3 -7 -7 -8 -10 -18 -6 -21 3 -4 0
-14 -8 -24 -8 -9 -9 -14 -3 -10 8 4 11 -3 10 -23 0 -17 -3 -30 -6 -30 -3 0 -4
-23 -3 -50 2 -38 -1 -49 -10 -43 -9 5 -9 3 0 -9 7 -8 10 -17 8 -20 -6 -5 -13
-72 -14 -131 -1 -20 -5 -26 -13 -21 -10 5 -10 4 0 -7 10 -11 8 -17 -10 -32
-13 -10 -16 -15 -8 -11 12 7 12 4 -2 -16 -9 -14 -22 -24 -28 -22 -6 1 -9 -2
-5 -8 9 -15 -23 -62 -37 -54 -7 4 -8 3 -4 -5 7 -10 -29 -81 -40 -81 -3 0 -2 5
2 12 4 6 3 8 -4 4 -6 -3 -7 -17 -3 -34 7 -25 12 -27 63 -30 46 -2 57 -7 61
-22 3 -11 1 -23 -5 -26 -5 -3 -7 -12 -4 -19 2 -7 -1 -18 -7 -25 -9 -10 -9 -11
1 -6 14 8 17 -10 3 -18 -5 -4 -7 -20 -4 -37 3 -19 1 -29 -5 -25 -11 7 -11 -12
1 -31 4 -6 4 -14 -1 -17 -5 -3 -8 -28 -6 -55 1 -31 -2 -48 -8 -45 -6 4 -5 -3
1 -15 7 -11 8 -21 4 -21 -15 0 1 -122 18 -133 11 -7 49 2 135 32 193 68 180
59 188 133 12 113 27 278 29 316 1 19 303 17 310 -3 4 -8 2 -17 -2 -20 -5 -3
-7 -14 -4 -26 4 -12 0 -25 -8 -30 -12 -7 -12 -9 0 -9 9 0 10 -4 4 -12 -6 -7
-9 -32 -8 -55 2 -24 0 -41 -4 -39 -4 3 -5 -11 -3 -30 2 -19 -1 -41 -7 -48 -9
-11 -9 -16 0 -21 8 -6 7 -10 -2 -16 -12 -7 -12 -9 0 -9 9 0 10 -4 5 -12 -8
-11 -9 -50 -5 -125 2 -44 24 -40 283 52 53 19 55 23 63 120 3 39 8 90 10 115
13 126 17 168 21 202 2 21 6 73 9 115 3 43 8 89 10 103 2 14 6 50 10 80 10 92
16 134 20 150 6 19 13 99 21 238 l6 102 -28 0 c-16 0 -54 -7 -84 -16 -60 -16
-82 -22 -120 -29 -71 -14 -125 -33 -126 -43 -1 -7 -3 -15 -4 -19 -1 -5 -2 -12
-1 -16 1 -4 -4 -17 -10 -29 -8 -15 -8 -18 0 -14 15 10 14 -7 -1 -22 -9 -9 -9
-12 0 -12 9 0 10 -6 5 -17 -5 -10 -8 -27 -8 -38 1 -11 -6 -29 -14 -40 -15 -19
-15 -19 3 -5 18 14 19 13 13 -3 -4 -10 -7 -30 -7 -43 0 -18 -4 -23 -12 -18 -9
6 -9 3 0 -9 8 -9 10 -22 6 -29 -5 -7 -7 -39 -6 -70 l3 -58 -113 -1 c-62 0
-132 -1 -156 -2 l-42 -2 6 55 c3 30 8 62 9 70 11 58 22 165 30 303 l7 107 -28
-1 c-16 0 -95 -17 -176 -38z"/>
</g>
</svg>
